<mxfile host="app.diagrams.net" modified="2023-03-31T03:04:18.521Z" agent="Mozilla/5.0 (Windows NT 10.0; Win64; x64) AppleWebKit/537.36 (KHTML, like Gecko) Chrome/111.0.0.0 Safari/537.36" version="21.1.1" etag="4ZqT4PHAD23xvyFaFKga" type="github">
  <diagram name="第 1 页" id="LvFMHofu6jsMNKpvj6JP">
    <mxGraphModel>
      <root>
        <mxCell id="0" />
        <mxCell id="1" parent="0" />
      </root>
    </mxGraphModel>
  </diagram>
</mxfile>
